#N canvas 445 332 450 392 10;
#X obj 44 134 hid;
#X obj 71 58 pack \$1;
#X msg 71 78 open \$1;
#X obj 71 25 loadbang;
#X obj 130 25 bng 15 250 50 0 empty empty empty 17 7 0 10 -262144 -1
-1;
#X obj 19 49 del 100;
#X msg 18 73 1;
#N canvas 104 190 450 300 key_route 0;
#X obj 24 158 keyout \$2-btn1;
#X obj 24 114 route btn_0 btn_1 btn_2 btn_3 btn_4 btn_5 btn_6 btn_7
btn_8 btn_9 btn_10 btn_11 btn_12;
#X obj 51 179 keyout \$2-btn2;
#X obj 78 199 keyout \$2-btn3;
#X obj 105 219 keyout \$2-btn4;
#X obj 132 157 keyout \$2-btn5;
#X obj 159 178 keyout \$2-btn6;
#X obj 186 198 keyout \$2-btn7;
#X obj 213 218 keyout \$2-btn8;
#X obj 240 156 keyout \$2-btn9;
#X obj 267 177 keyout \$2-btn10;
#X obj 294 197 keyout \$2-btn11;
#X obj 321 217 keyout \$2-btn12;
#X obj 24 87 inlet;
#X connect 1 0 0 0;
#X connect 1 1 2 0;
#X connect 1 2 3 0;
#X connect 1 3 4 0;
#X connect 1 4 5 0;
#X connect 1 5 6 0;
#X connect 1 6 7 0;
#X connect 1 7 8 0;
#X connect 1 8 9 0;
#X connect 1 9 10 0;
#X connect 1 10 11 0;
#X connect 1 11 12 0;
#X connect 13 0 1 0;
#X restore 44 232 pd key_route;
#N canvas 589 440 450 300 route_abs 1;
#X obj 11 11 inlet;
#X obj 11 62 s \$2-lx;
#X obj 11 37 route abs_x abs_y abs_z abs_rz abs_throttle;
#X obj 62 63 s \$2-ly;
#X obj 113 62 s \$2-rx;
#X obj 164 62 s \$2-ry;
#X obj 215 61 s \$2-throttle;
#X connect 0 0 2 0;
#X connect 2 0 1 0;
#X connect 2 1 3 0;
#X connect 2 2 4 0;
#X connect 2 3 5 0;
#X connect 2 4 6 0;
#X restore 77 209 pd route_abs;
#X obj 44 155 route key abs rel;
#X connect 0 0 9 0;
#X connect 1 0 2 0;
#X connect 2 0 0 0;
#X connect 3 0 1 0;
#X connect 3 0 5 0;
#X connect 4 0 1 0;
#X connect 5 0 6 0;
#X connect 6 0 0 0;
#X connect 9 0 7 0;
#X connect 9 1 8 0;
