#N canvas 3 57 558 300 10;
#X obj 294 25 table \$0-sample;
#X obj 293 164 soundfiler;
#X obj 293 92 \$0;
#X obj 294 70 t b b;
#X obj 292 49 loadbang;
#X obj 293 114 pack f s;
#X msg 293 140 read -resize ./audio/\$2.wav \$1-sample;
#X obj 60 165 dac~;
#X obj 61 132 tabplay~ \$0-sample;
#X obj 353 50 bng 15 250 50 0 empty empty empty 17 7 0 10 -262144 -1
-1;
#X obj 338 92 symbol \$1;
#X obj 61 2 r ruby-drum;
#X obj 61 59 sel \$1;
#X obj 150 42 symbol \$1;
#X obj 150 18 loadbang;
#X obj 159 72 print;
#X obj 61 33 symbol;
#X connect 2 0 5 0;
#X connect 3 0 2 0;
#X connect 3 1 10 0;
#X connect 4 0 3 0;
#X connect 5 0 6 0;
#X connect 6 0 1 0;
#X connect 8 0 7 0;
#X connect 8 0 7 1;
#X connect 9 0 3 0;
#X connect 10 0 5 1;
#X connect 11 0 16 0;
#X connect 12 0 8 0;
#X connect 13 0 15 0;
#X connect 13 0 12 1;
#X connect 14 0 13 0;
#X connect 16 0 12 0;
