#N canvas 648 201 574 430 10;
#X obj 14 49 hid;
#X msg 14 26 print;
#X text 191 -1 saitek st200 stick;
#X text 186 46 my power co;
#N canvas 341 281 532 379 tidy-stick 0;
#X obj 12 12 r stick-lx;
#X obj 299 15 r stick-ly;
#X floatatom 12 36 5 0 0 0 - - -;
#X obj 12 60 maxlib/scale 40 400 0 255;
#X obj 12 83 min 255;
#X obj 12 105 max 0;
#X obj 12 172 spigot;
#X obj 153 170 spigot;
#X obj 86 197 +;
#X obj 86 174 t b f;
#X obj 86 244 sel 1;
#X msg 86 267 128;
#X obj 86 223 == 0;
#X obj 86 320 s stick-x;
#X floatatom 299 38 5 0 0 0 - - -;
#X obj 299 62 maxlib/scale 40 400 0 255;
#X obj 299 85 min 255;
#X obj 299 107 max 0;
#X obj 299 174 spigot;
#X obj 440 172 spigot;
#X obj 373 199 +;
#X obj 373 176 t b f;
#X obj 373 246 sel 1;
#X msg 373 269 128;
#X obj 373 225 == 0;
#X obj 373 322 s stick-y;
#X obj 316 150 > 140;
#X obj 29 148 > 140;
#X obj 186 146 < 116;
#X obj 473 148 < 116;
#X connect 0 0 2 0;
#X connect 1 0 14 0;
#X connect 2 0 3 0;
#X connect 3 0 4 0;
#X connect 4 0 5 0;
#X connect 5 0 6 0;
#X connect 5 0 7 0;
#X connect 5 0 27 0;
#X connect 5 0 28 0;
#X connect 6 0 13 0;
#X connect 7 0 13 0;
#X connect 8 0 12 0;
#X connect 9 0 8 0;
#X connect 9 1 8 1;
#X connect 10 0 11 0;
#X connect 11 0 13 0;
#X connect 12 0 10 0;
#X connect 14 0 15 0;
#X connect 15 0 16 0;
#X connect 16 0 17 0;
#X connect 17 0 18 0;
#X connect 17 0 19 0;
#X connect 17 0 26 0;
#X connect 17 0 29 0;
#X connect 18 0 25 0;
#X connect 19 0 25 0;
#X connect 20 0 24 0;
#X connect 21 0 20 0;
#X connect 21 1 20 1;
#X connect 22 0 23 0;
#X connect 23 0 25 0;
#X connect 24 0 22 0;
#X connect 26 0 18 1;
#X connect 26 0 20 0;
#X connect 27 0 6 1;
#X connect 27 0 8 0;
#X connect 28 0 7 1;
#X connect 28 0 9 0;
#X connect 29 0 19 1;
#X connect 29 0 21 0;
#X restore 350 0 pd tidy-stick;
#N canvas 192 88 450 300 controller_reference 0;
#X text 11 49 Buttons;
#X text 27 70 name-btn1 .. name-btn12;
#X text 12 88 Axes;
#X text 27 105 name-lx - left stick \, sideways;
#X text 27 117 name-ly - right stick \, sideways;
#X text 27 128 name-rx - left stick \, sideways;
#X text 27 139 name-ry - right stick \, sideways;
#X text 28 153 name-l - tidied up x axis (Stick only);
#X text 33 11 Named sends for controller info;
#X text 33 23 Replace name with name of controller;
#X text 29 164 name-r - tidied up y axis (Stick only);
#X restore 351 24 pd controller_reference;
#X obj 15 96 gem-window 700 700;
#N canvas 37 409 450 300 keyboard-input 0;
#X obj 27 23 notein;
#X obj 105 128 == 0;
#X obj 78 209 s noteoff;
#X obj 78 157 spigot;
#X floatatom 78 184 5 0 0 0 - - -;
#X obj 17 156 spigot;
#X floatatom 17 183 5 0 0 0 - - -;
#X obj 44 127 != 0;
#X obj 17 209 s noteon;
#N canvas 751 335 450 405 keys 0;
#X obj 105 92 key-vis 20 68;
#X obj 11 12 key-vis 0 48;
#X obj 11 32 key-vis 1 49;
#X obj 11 52 key-vis 2 50;
#X obj 11 72 key-vis 3 51;
#X obj 11 92 key-vis 4 52;
#X obj 11 112 key-vis 5 53;
#X obj 11 152 key-vis 7 55;
#X obj 11 132 key-vis 6 54;
#X obj 11 193 key-vis 9 57;
#X obj 11 213 key-vis 10 58;
#X obj 11 233 key-vis 11 59;
#X obj 11 253 key-vis 12 60;
#X obj 11 273 key-vis 13 61;
#X obj 11 293 key-vis 14 62;
#X obj 11 313 key-vis 15 63;
#X obj 105 12 key-vis 16 64;
#X obj 105 32 key-vis 17 65;
#X obj 105 52 key-vis 18 66;
#X obj 105 72 key-vis 19 67;
#X obj 105 112 key-vis 21 69;
#X obj 105 132 key-vis 22 70;
#X obj 105 152 key-vis 23 71;
#X obj 105 173 key-vis 24 72;
#X obj 105 193 key-vis 25 73;
#X obj 11 173 key-vis 8 56;
#X restore 170 20 pd keys;
#X connect 0 0 3 0;
#X connect 0 0 5 0;
#X connect 0 1 1 0;
#X connect 0 1 7 0;
#X connect 1 0 3 1;
#X connect 3 0 4 0;
#X connect 4 0 2 0;
#X connect 5 0 6 0;
#X connect 6 0 8 0;
#X connect 7 0 5 1;
#X restore 15 127 pd keyboard-input;
#X obj 68 51 controller 13 orb;
#X obj 19 167 player stick x y 0 1 0;
#X msg 322 90 1;
#X obj 322 134 s display-click;
#X obj 322 67 loadbang;
#X obj 17 194 player orb lx ly 0 0 1;
#N canvas 694 261 628 383 player-colision 0;
#X obj 23 28 r stick-xpos;
#X floatatom 23 58 5 0 0 0 - - -;
#X obj 69 62 r orb-xpos;
#X floatatom 69 84 5 0 0 0 - - -;
#X text 50 6 circle size = 0.2;
#X obj 23 138 -;
#X obj 42 112 t b f;
#X obj 24 167 expr $f1 < 0.2 && $f1 > -0.2;
#X obj 378 57 table cymbal;
#X obj 378 123 soundfiler;
#X msg 378 100 read -resize ./audio/cymbal.wav cymbal;
#X obj 378 78 loadbang;
#X floatatom 213 59 5 0 0 0 - - -;
#X floatatom 259 85 5 0 0 0 - - -;
#X obj 213 139 -;
#X obj 232 113 t b f;
#X obj 214 168 expr $f1 < 0.2 && $f1 > -0.2;
#X obj 156 296 tabplay~ cymbal;
#X obj 151 337 dac~;
#X obj 213 29 r stick-ypos;
#X obj 259 63 r orb-ypos;
#X obj 158 236 +;
#X obj 174 207 t b f;
#X obj 158 260 sel 2;
#X connect 0 0 1 0;
#X connect 1 0 5 0;
#X connect 2 0 3 0;
#X connect 3 0 6 0;
#X connect 5 0 7 0;
#X connect 6 0 5 0;
#X connect 6 1 5 1;
#X connect 7 0 21 0;
#X connect 10 0 9 0;
#X connect 11 0 10 0;
#X connect 12 0 14 0;
#X connect 13 0 15 0;
#X connect 14 0 16 0;
#X connect 15 0 14 0;
#X connect 15 1 14 1;
#X connect 16 0 22 0;
#X connect 17 0 18 0;
#X connect 17 0 18 1;
#X connect 19 0 12 0;
#X connect 20 0 13 0;
#X connect 21 0 23 0;
#X connect 22 0 21 0;
#X connect 22 1 21 1;
#X connect 23 0 17 0;
#X restore 18 241 pd player-colision;
#X obj 323 112 metro 30;
#X obj 68 5 controller 7 stick;
#N canvas 695 440 450 300 from_ruby 0;
#X obj 28 23 netreceive 9595 1;
#X obj 28 56 route shape drum;
#X obj 28 141 s ruby-shape;
#X obj 74 93 s ruby-drum;
#X text 92 73 drum name;
#X text 47 115 shape name xpos ypos size;
#X obj 144 53 print ruby:;
#X connect 0 0 1 0;
#X connect 0 0 6 0;
#X connect 1 0 2 0;
#X connect 1 1 3 0;
#X restore 15 279 pd from_ruby;
#X connect 1 0 0 0;
#X connect 10 0 15 0;
#X connect 12 0 10 0;
#X connect 15 0 11 0;
