#N canvas 730 149 450 537 10;
#X obj 18 31 gemhead;
#X msg 60 414 8;
#X obj 60 393 loadbang;
#X obj 18 461 rectangle 0.1 4;
#X obj 18 156 translateXYZ;
#X msg 96 59 8;
#X obj 96 12 loadbang;
#X obj 44 98 *;
#X obj 96 80 / 25;
#X obj 44 122 - 4;
#X obj 69 37 t b b;
#X obj 44 67 \$1;
#X obj 148 43 bng 15 250 50 0 empty empty empty 17 7 0 10 -262144 -1
-1;
#X obj 60 435 / 50;
#X obj 369 125 loadbang;
#X msg 369 154 0;
#X obj 213 70 r noteon;
#X obj 213 95 sel \$2;
#X msg 213 115 1;
#X obj 272 95 sel \$2;
#X obj 272 70 r noteoff;
#X msg 272 115 0;
#X obj 18 355 colourRGB;
#X obj 69 269 r \$0-on;
#X obj 69 319 line;
#X msg 69 294 \$1 100;
#X obj 18 233 alpha;
#X obj 213 196 s \$0-on;
#X obj 271 197 s \$0-off;
#X obj 120 269 r \$0-off;
#X obj 223 332 key-sound \$2 \$0;
#X obj 137 371 line~;
#X msg 137 350 \$1 10;
#X obj 136 392 s~ \$0-keyvol;
#X msg 121 294 \$1 1000;
#X obj 369 97 r note-reset;
#X obj 100 161 s \$0-pos;
#X connect 0 0 4 0;
#X connect 1 0 13 0;
#X connect 2 0 1 0;
#X connect 4 0 26 0;
#X connect 5 0 8 0;
#X connect 6 0 10 0;
#X connect 7 0 9 0;
#X connect 8 0 7 1;
#X connect 9 0 4 1;
#X connect 9 0 36 0;
#X connect 10 0 11 0;
#X connect 10 1 5 0;
#X connect 11 0 7 0;
#X connect 12 0 10 0;
#X connect 13 0 3 1;
#X connect 14 0 15 0;
#X connect 15 0 28 0;
#X connect 16 0 17 0;
#X connect 17 0 18 0;
#X connect 18 0 27 0;
#X connect 19 0 21 0;
#X connect 20 0 19 0;
#X connect 21 0 28 0;
#X connect 22 0 3 0;
#X connect 23 0 25 0;
#X connect 24 0 22 4;
#X connect 24 0 32 0;
#X connect 25 0 24 0;
#X connect 26 0 22 0;
#X connect 29 0 34 0;
#X connect 31 0 33 0;
#X connect 32 0 31 0;
#X connect 34 0 24 0;
#X connect 35 0 15 0;
