#N canvas 3 59 450 300 10;
#X obj 35 226 outlet~;
#X obj 36 192 osc~;
#X obj 37 162 +~;
#X obj 37 16 inlet;
#X obj 37 45 s \$0-pitch;
#X obj 38 88 r \$0-pitch;
#X obj 38 113 sig~;
#X obj 159 22 inlet;
#X text 126 -1 param \, FM freq;
#X obj 206 80 *~;
#X obj 300 59 r \$0-pitch;
#X obj 149 117 osc~;
#X obj 148 145 *~;
#X obj 223 110 r \$0-pitch;
#X obj 224 133 * 0.1;
#X obj 163 44 maxlib/scale -4 4 0 0.8;
#X connect 1 0 0 0;
#X connect 2 0 1 0;
#X connect 3 0 4 0;
#X connect 5 0 6 0;
#X connect 6 0 2 0;
#X connect 7 0 15 0;
#X connect 9 0 11 0;
#X connect 10 0 9 1;
#X connect 11 0 12 0;
#X connect 12 0 2 1;
#X connect 13 0 14 0;
#X connect 14 0 12 1;
#X connect 15 0 9 0;
