#N canvas 3 55 450 300 10;
#X obj 96 32 inlet;
#X obj 63 208 s \$1;
#X obj 123 104 f;
#X obj 96 129 ==;
#X obj 96 73 t f b;
#X obj 63 170 spigot;
#X connect 0 0 4 0;
#X connect 0 0 5 0;
#X connect 2 0 3 1;
#X connect 3 0 5 1;
#X connect 4 0 2 1;
#X connect 4 0 3 0;
#X connect 4 1 2 0;
#X connect 5 0 1 0;
