#N canvas 789 357 450 371 10;
#X obj 56 88 r \$2-pos;
#X obj 56 107 + 0.2;
#X obj 41 189 +;
#X obj 57 167 t b f;
#X obj 176 87 r \$2-pos;
#X obj 176 106 - 0.2;
#X floatatom 38 212 5 0 0 0 - - -;
#X obj 41 139 <;
#X obj 161 134 >;
#X obj 38 233 sel 2;
#X obj 41 32 r \$1-xpos;
#X obj 161 66 r \$1-xpos;
#X obj 180 301 s \$3-trig;
#X obj 268 175 r \$1-xpos;
#X obj 180 270 spigot;
#X obj 218 200 > -3.95;
#X obj 268 199 < 3.95;
#X obj 298 323 s \$3-param;
#X obj 298 294 f;
#X obj 313 265 r \$1-ypos;
#X connect 0 0 1 0;
#X connect 1 0 7 1;
#X connect 2 0 6 0;
#X connect 3 0 2 0;
#X connect 3 1 2 1;
#X connect 4 0 5 0;
#X connect 5 0 8 1;
#X connect 6 0 9 0;
#X connect 7 0 2 0;
#X connect 8 0 3 0;
#X connect 9 0 14 0;
#X connect 10 0 7 0;
#X connect 11 0 8 0;
#X connect 13 0 15 0;
#X connect 13 0 16 0;
#X connect 14 0 12 0;
#X connect 14 0 18 0;
#X connect 15 0 14 1;
#X connect 16 0 14 1;
#X connect 18 0 17 0;
#X connect 19 0 18 1;
