#N canvas 832 364 450 300 10;
#X obj 61 31 r \$1-score;
#X obj 61 57 f;
#X obj 90 58 + 1;
#X obj 61 89 s \$0-points;
#X obj 138 10 r reset-game;
#X msg 137 32 0;
#X obj 196 141 gemhead;
#X obj 345 141 r \$0-points;
#X obj 194 206 colourRGB 1 1 1;
#X obj 199 250 text2d 100;
#X obj 194 180 translateXYZ \$2 \$3 0;
#X msg 345 192 text \$1;
#X msg 79 195 justify left base;
#X obj 83 172 loadbang;
#X obj 347 15 loadbang;
#X msg 347 36 0;
#X obj 347 58 s reset-game;
#X connect 0 0 1 0;
#X connect 1 0 2 0;
#X connect 1 0 3 0;
#X connect 2 0 1 1;
#X connect 4 0 5 0;
#X connect 5 0 1 0;
#X connect 6 0 10 0;
#X connect 7 0 11 0;
#X connect 8 0 9 0;
#X connect 10 0 8 0;
#X connect 11 0 9 0;
#X connect 12 0 9 0;
#X connect 13 0 12 0;
#X connect 14 0 15 0;
#X connect 15 0 16 0;
