#N canvas 760 333 450 300 10;
#X floatatom 67 47 5 0 0 0 - - -;
#X floatatom 120 47 5 0 0 0 - - -;
#X obj 67 17 r \$1-\$2;
#X obj 120 17 r \$1-\$3;
#X obj 179 12 loadbang;
#X msg 179 31 128;
#N canvas 410 409 450 300 draw-player 0;
#X obj 8 11 gemhead;
#X obj 8 161 colourRGB \$4 \$5 \$6;
#X obj 8 196 circle 0.1;
#X obj 31 53 r \$0-xpos;
#X obj 54 75 r \$0-ypos;
#X msg 104 49 1;
#X obj 8 97 translateXYZ 0 0 0.0001;
#X connect 0 0 6 0;
#X connect 1 0 2 0;
#X connect 3 0 6 1;
#X connect 4 0 6 2;
#X connect 5 0 6 1;
#X connect 5 0 6 2;
#X connect 6 0 1 0;
#X restore 37 112 pd draw-player;
#X obj 67 75 s \$0-x;
#X obj 120 76 s \$0-y;
#N canvas 840 275 509 300 generate-position 1;
#X obj 37 240 s \$0-xpos;
#X obj 86 40 r \$0-x;
#X obj 86 82 / 5;
#X obj 36 144 f;
#X obj 71 143 + 0;
#X obj 36 119 r display-click;
#X obj 37 168 wrap;
#X obj 37 190 * 8;
#X obj 37 216 - 4;
#X obj 322 74 / 5;
#X obj 272 136 f;
#X obj 307 135 + 0;
#X obj 272 111 r display-click;
#X obj 273 160 wrap;
#X obj 273 208 - 4;
#X obj 273 255 s \$0-ypos;
#X obj 322 32 r \$0-y;
#X floatatom 105 243 5 0 0 0 - - -;
#X floatatom 342 237 5 0 0 0 - - -;
#X obj 273 182 * 8;
#X obj 273 230 * -1;
#X obj 15 40 loadbang;
#X obj 56 268 s \$1-xpos;
#X obj 288 279 s \$1-ypos;
#X obj 15 84 / 100;
#X obj 15 63 random 100;
#X obj 388 78 loadbang;
#X obj 388 122 / 100;
#X obj 388 101 random 100;
#X obj 86 62 maxlib/scale 0 256 -0.1 0.1;
#X obj 322 54 maxlib/scale 0 256 -0.1 0.1;
#X connect 1 0 29 0;
#X connect 2 0 4 1;
#X connect 3 0 4 0;
#X connect 3 0 6 0;
#X connect 4 0 3 1;
#X connect 5 0 3 0;
#X connect 6 0 7 0;
#X connect 7 0 8 0;
#X connect 8 0 0 0;
#X connect 8 0 17 0;
#X connect 8 0 22 0;
#X connect 9 0 11 1;
#X connect 10 0 11 0;
#X connect 10 0 13 0;
#X connect 11 0 10 1;
#X connect 12 0 10 0;
#X connect 13 0 19 0;
#X connect 14 0 18 0;
#X connect 14 0 20 0;
#X connect 16 0 30 0;
#X connect 19 0 14 0;
#X connect 20 0 15 0;
#X connect 20 0 23 0;
#X connect 21 0 25 0;
#X connect 24 0 3 0;
#X connect 25 0 24 0;
#X connect 26 0 28 0;
#X connect 27 0 10 0;
#X connect 28 0 27 0;
#X connect 29 0 2 0;
#X connect 30 0 9 0;
#X restore 38 141 pd generate-position;
#X connect 0 0 7 0;
#X connect 1 0 8 0;
#X connect 2 0 0 0;
#X connect 3 0 1 0;
#X connect 4 0 5 0;
#X connect 5 0 0 0;
#X connect 5 0 1 0;
