#N canvas 23 58 450 567 10;
#X text 38 16 shape_name player_name shape_\$0;
#X text 38 35 \$3-x \$3-y - shape position;
#X text 42 51 \$3-size - shape size;
#X text 37 66 \$2-xpos \$2-ypos - player position;
#X text 41 84 s to-ruby \$3 - return to ruby;
#X obj 129 522 s to-ruby;
#X obj 5 142 r \$2-xpos;
#X obj 20 165 r \$3-x;
#X obj 20 240 +;
#X obj 35 186 r \$3-size;
#X obj 94 142 r \$2-xpos;
#X obj 109 163 r \$3-x;
#X obj 124 183 r \$3-size;
#X obj 109 240 -;
#X obj 5 271 <;
#X obj 94 268 >;
#X obj 5 339 +;
#X obj 26 308 t b f;
#X obj 53 434 t b b;
#X obj 129 451 spigot;
#X obj 162 430 r \$3-on;
#X msg 53 480 0;
#X obj 53 412 sel 4;
#X obj 53 391 +;
#X obj 201 353 t b f;
#X obj 231 184 r \$3-size;
#X obj 320 183 r \$3-size;
#X obj 201 330 +;
#X obj 222 299 t b f;
#X obj 201 111 r \$2-ypos;
#X obj 305 163 r \$3-y;
#X obj 216 163 r \$3-y;
#X floatatom 102 400 5 0 0 0 - - -;
#X obj 129 497 symbol \$1;
#X obj 52 501 s \$3-on;
#X obj 199 497 s \$3-trig;
#X obj 290 103 r \$2-ypos;
#X obj 216 232 +;
#X obj 201 262 <;
#X obj 290 259 >;
#X floatatom 73 310 5 0 0 0 - - -;
#X floatatom 110 311 5 0 0 0 - - -;
#X floatatom 285 323 5 0 0 0 - - -;
#X floatatom 326 324 5 0 0 0 - - -;
#X obj 305 233 -;
#X obj 290 136 * -1;
#X obj 201 138 * -1;
#X obj 231 208 + 0.2;
#X obj 320 208 + 0.2;
#X obj 35 212 + 0.2;
#X obj 124 209 + 0.2;
#X connect 6 0 14 0;
#X connect 7 0 8 0;
#X connect 8 0 14 1;
#X connect 9 0 49 0;
#X connect 10 0 15 0;
#X connect 11 0 13 0;
#X connect 12 0 50 0;
#X connect 13 0 15 1;
#X connect 14 0 16 0;
#X connect 14 0 40 0;
#X connect 15 0 17 0;
#X connect 15 0 41 0;
#X connect 16 0 23 0;
#X connect 17 0 16 0;
#X connect 17 1 16 1;
#X connect 18 0 21 0;
#X connect 18 1 19 0;
#X connect 19 0 33 0;
#X connect 19 0 35 0;
#X connect 20 0 19 1;
#X connect 21 0 34 0;
#X connect 22 0 18 0;
#X connect 23 0 22 0;
#X connect 23 0 32 0;
#X connect 24 0 23 0;
#X connect 24 1 23 1;
#X connect 25 0 47 0;
#X connect 26 0 48 0;
#X connect 27 0 24 0;
#X connect 28 0 27 0;
#X connect 28 1 27 1;
#X connect 29 0 46 0;
#X connect 30 0 44 0;
#X connect 31 0 37 0;
#X connect 33 0 5 0;
#X connect 36 0 45 0;
#X connect 37 0 38 1;
#X connect 38 0 27 0;
#X connect 38 0 42 0;
#X connect 39 0 28 0;
#X connect 39 0 43 0;
#X connect 44 0 39 1;
#X connect 45 0 39 0;
#X connect 46 0 38 0;
#X connect 47 0 37 1;
#X connect 48 0 44 1;
#X connect 49 0 8 1;
#X connect 50 0 13 1;
