#N canvas 642 56 525 504 10;
#X obj 21 25 r ruby-shape;
#X obj 21 55 route \$1;
#X obj 21 91 unpack f f f;
#X text 104 91 x y size;
#X obj 21 171 maxlib/scale 0 100 -4 4;
#X obj 167 171 maxlib/scale 0 100 4 -4;
#X obj 21 208 s \$0-x;
#X obj 167 207 s \$0-y;
#X obj 147 122 s \$0-size;
#X obj 123 321 gemhead;
#X obj 123 399 translateXYZ;
#X obj 146 348 r \$0-x;
#X obj 247 337 r \$0-x;
#X msg 247 364 1;
#X obj 123 474 circle;
#X obj 156 446 r \$0-size;
#X obj 134 27 loadbang;
#X msg 134 53 0 0 0;
#X obj 123 426 colourRGB \$2 \$3 \$4;
#X obj 123 298 r \$0-on;
#X obj 295 364 bng 15 250 50 0 empty empty empty 17 7 0 10 -262144
-1 -1;
#X obj 247 387 s \$0-on;
#N canvas 592 287 582 300 shape-sound 0;
#X obj 284 15 table \$0-sample;
#X obj 283 154 soundfiler;
#X obj 283 82 \$0;
#X obj 328 82 symbol \$5;
#X obj 284 60 t b b;
#X obj 282 39 loadbang;
#X obj 283 104 pack f s;
#X msg 283 130 read -resize ./audio/\$2.wav \$1-sample;
#X obj 52 85 r \$0-trig;
#X obj 51 155 dac~;
#X obj 52 122 tabplay~ \$0-sample;
#X obj 142 103 bng 15 250 50 0 empty empty empty 17 7 0 10 -262144
-1 -1;
#X obj 343 40 bng 15 250 50 0 empty empty empty 17 7 0 10 -262144 -1
-1;
#X connect 2 0 6 0;
#X connect 3 0 6 1;
#X connect 4 0 2 0;
#X connect 4 1 3 0;
#X connect 5 0 4 0;
#X connect 6 0 7 0;
#X connect 7 0 1 0;
#X connect 8 0 10 0;
#X connect 10 0 9 0;
#X connect 10 0 9 1;
#X connect 11 0 10 0;
#X connect 12 0 4 0;
#X restore 345 47 pd shape-sound;
#X obj 326 271 shape-trigger \$1 stick \$0;
#X obj 169 370 r \$0-y;
#X obj 328 296 shape-trigger \$1 orb \$0;
#X connect 0 0 1 0;
#X connect 1 0 2 0;
#X connect 2 0 4 0;
#X connect 2 1 5 0;
#X connect 2 2 8 0;
#X connect 4 0 6 0;
#X connect 5 0 7 0;
#X connect 9 0 10 0;
#X connect 10 0 18 0;
#X connect 11 0 10 1;
#X connect 12 0 13 0;
#X connect 12 0 20 0;
#X connect 13 0 21 0;
#X connect 15 0 14 1;
#X connect 16 0 17 0;
#X connect 17 0 2 0;
#X connect 18 0 14 0;
#X connect 19 0 9 0;
#X connect 24 0 10 2;
